<?xml version="1.0" standalone="no"?>
<!DOCTYPE svg PUBLIC "-//W3C//DTD SVG 20010904//EN"
 "http://www.w3.org/TR/2001/REC-SVG-20010904/DTD/svg10.dtd">
<svg version="1.0" xmlns="http://www.w3.org/2000/svg"
 width="15225.000000pt" height="15225.000000pt" viewBox="0 0 15225.000000 15225.000000"
 preserveAspectRatio="xMidYMid meet">

<g transform="translate(0.000000,15225.000000) scale(0.100000,-0.100000)"
fill="#000000" stroke="none">
<path d="M76105 128960 c-2141 -28 -4671 -80 -6804 -140 -871 -25 -1064 -38
-1506 -101 -2496 -358 -4701 -1826 -6022 -4009 -693 -1146 -1094 -2386 -1209
-3740 -22 -256 -26 -971 -6 -1180 35 -372 112 -949 173 -1300 114 -655 427
-2227 853 -4288 81 -387 146 -705 146 -707 0 -2 -75 -55 -167 -119 -1632
-1121 -2829 -2453 -3633 -4041 -1095 -2163 -1410 -4765 -929 -7675 182 -1102
479 -2245 870 -3347 44 -122 79 -227 79 -233 0 -7 -1056 -10 -3340 -10 l-3340
0 -3 3578 c-3 3344 -4 3583 -20 3662 -120 586 -457 991 -935 1122 -113 31
-371 32 -492 1 -327 -83 -610 -319 -785 -655 -61 -118 -113 -260 -146 -404
l-24 -99 -2 -8530 -3 -8530 21 -123 c51 -308 181 -577 379 -786 288 -304 671
-427 1045 -337 509 123 896 629 955 1247 7 73 10 1390 10 4007 l0 3897 3765 0
3765 0 116 -232 c308 -617 727 -1376 1147 -2078 2463 -4120 5649 -7929 9167
-10959 1980 -1706 4049 -3163 6215 -4378 560 -314 694 -381 900 -448 231 -76
428 -106 690 -106 266 0 470 32 712 112 195 65 470 208 1158 602 4754 2721
9098 6676 12697 11562 1313 1783 2550 3750 3429 5452 l94 183 3743 0 3742 0 0
-4004 0 -4003 21 -124 c37 -219 122 -436 241 -614 64 -96 206 -247 297 -315
141 -107 337 -188 507 -211 668 -89 1267 486 1334 1281 8 88 10 2650 8 8560
-4 7966 -5 8440 -21 8520 -77 374 -236 669 -472 873 -202 175 -416 263 -665
274 -314 13 -591 -99 -825 -335 -198 -200 -325 -443 -398 -762 l-22 -95 -5
-3545 -5 -3545 -3297 -3 c-2456 -1 -3298 1 -3298 9 0 7 32 98 71 203 622 1670
1021 3399 1153 4996 73 881 68 1749 -14 2560 -333 3269 -1918 5907 -4695 7813
-93 64 -174 118 -180 120 -5 2 12 103 38 233 440 2116 791 3868 927 4622 82
450 167 1070 202 1472 16 188 16 853 0 1070 -19 247 -58 582 -91 785 -262
1583 -953 3044 -2021 4270 -254 291 -736 753 -1055 1011 -1163 940 -2586 1560
-4070 1773 -442 63 -636 76 -1506 101 -3613 101 -7186 159 -8664 140z m9395
-5050 c742 -53 1423 -318 1995 -777 142 -114 356 -322 475 -463 472 -555 759
-1205 857 -1940 14 -107 18 -199 17 -440 0 -168 -5 -334 -11 -369 -6 -41 -7
-79 -1 -105 22 -96 38 -256 49 -464 39 -763 -117 -1993 -427 -3372 -48 -216
-164 -702 -168 -707 -1 -1 -19 2 -41 7 -374 84 -944 161 -1410 191 -241 15
-844 15 -1080 0 -972 -64 -1850 -254 -2785 -603 -1532 -572 -3071 -1583 -4420
-2903 -307 -300 -412 -384 -633 -499 -252 -133 -522 -203 -818 -213 -315 -11
-604 49 -884 181 -240 114 -367 210 -670 506 -2042 1992 -4316 3183 -6635
3474 -989 125 -2017 84 -3005 -118 -66 -13 -121 -23 -123 -22 -11 11 -205 866
-276 1212 -216 1059 -320 1914 -320 2629 0 327 7 445 40 644 14 82 14 115 4
241 -18 204 -8 601 19 780 101 681 358 1278 777 1805 173 217 482 509 724 682
520 373 1191 607 1850 646 156 9 16769 6 16900 -3z m-11305 -14885 c299 -76
550 -297 660 -579 19 -50 1115 -3889 2435 -8531 1321 -4642 2404 -8447 2407
-8455 3 -8 7 -10 9 -5 2 6 670 2685 1484 5955 814 3270 1488 5968 1496 5995
28 87 101 217 169 302 126 158 310 276 512 330 134 36 335 38 463 6 244 -62
460 -212 588 -409 26 -39 693 -1372 1481 -2963 l1435 -2891 4332 -2 4331 -3
-102 -255 c-201 -500 -357 -847 -602 -1343 l-172 -347 -4263 2 -4263 3 -96 27
c-115 31 -226 81 -318 142 -78 52 -209 185 -264 268 -32 49 -1045 2080 -1774
3557 -123 250 -226 452 -228 449 -3 -2 -727 -2905 -1609 -6450 -883 -3545
-1616 -6475 -1629 -6510 -89 -234 -255 -417 -484 -532 -371 -186 -832 -105
-1127 198 -79 81 -166 217 -204 318 -18 46 -1148 4007 -2512 8803 -1364 4796
-2484 8729 -2488 8739 -7 15 -14 3 -34 -55 -15 -41 -668 -1899 -1451 -4129
-783 -2231 -1439 -4085 -1457 -4120 -127 -253 -351 -433 -627 -507 -138 -37
-336 -38 -467 -4 -188 49 -314 120 -447 251 -71 70 -505 612 -1634 2038 -1253
1584 -1540 1941 -1550 1930 -7 -7 -650 -854 -1429 -1883 -848 -1120 -1447
-1902 -1493 -1951 -124 -128 -264 -209 -458 -266 l-80 -23 -1966 -3 -1965 -2
-121 247 c-229 469 -398 861 -619 1433 l-102 265 2068 3 2069 2 1672 2206
c920 1213 1697 2230 1727 2261 367 372 966 388 1344 34 56 -52 473 -572 1475
-1837 768 -970 1400 -1761 1403 -1757 4 5 748 2121 1655 4703 906 2582 1659
4724 1673 4760 48 125 111 219 222 330 166 166 332 248 575 284 73 11 253 -4
350 -29z"/>
<path d="M46283 104340 c-543 -69 -978 -487 -1043 -1002 -14 -118 -14 -12778
1 -12884 33 -240 137 -449 312 -631 518 -537 1420 -483 1865 110 105 141 188
338 212 502 8 59 10 1773 8 6515 l-3 6435 -28 95 c-35 119 -101 258 -168 355
-170 247 -458 432 -761 490 -103 19 -299 27 -395 15z"/>
<path d="M107292 103950 c-554 -70 -987 -482 -1052 -1002 -14 -118 -14 -12778
1 -12884 52 -378 307 -718 661 -884 158 -73 293 -107 469 -117 554 -30 1061
311 1222 822 14 44 30 116 37 160 8 59 10 1773 8 6510 l-3 6430 -27 98 c-120
435 -482 767 -930 852 -104 19 -290 27 -386 15z"/>
<path d="M42649 101830 c-508 -46 -917 -323 -1019 -691 -20 -73 -20 -84 -20
-4469 0 -4744 -3 -4443 51 -4565 127 -290 444 -505 854 -581 153 -29 482 -26
625 5 449 96 763 343 857 672 17 61 18 238 18 4469 l0 4405 -24 75 c-12 41
-32 93 -43 115 -198 388 -723 616 -1299 565z"/>
<path d="M110895 101439 c-514 -48 -923 -331 -1020 -704 -13 -53 -15 -531 -15
-4455 0 -4863 -6 -4450 65 -4595 145 -299 503 -515 938 -565 146 -17 400 -8
532 20 443 93 747 333 853 672 15 49 17 393 20 4413 2 3179 0 4381 -8 4439
-59 413 -483 725 -1052 776 -128 11 -184 11 -313 -1z"/>
<path d="M63850 53345 l0 -4815 971 0 971 0 -6 1498 c-3 823 -9 1662 -12 1865
l-6 367 1116 0 1116 0 0 -1835 0 -1835 975 0 975 0 0 1832 0 1833 -405 405
-405 405 405 432 405 432 0 1428 0 1428 -696 670 c-383 369 -702 673 -708 676
-10 6 -3667 30 -4408 29 l-288 0 0 -4815z m4150 1825 l0 -1020 -1105 0 -1105
0 0 1020 0 1020 1105 0 1105 0 0 -1020z"/>
<path d="M83060 53347 l0 -4817 968 2 967 3 -2 690 c-1 380 -5 1218 -8 1863
l-7 1172 1116 0 1116 0 0 -1835 0 -1835 975 0 975 0 0 1832 0 1833 -406 406
-406 406 406 433 406 432 0 1424 0 1423 -137 134 c-76 74 -393 379 -705 679
l-567 545 -1148 6 c-631 4 -1687 10 -2345 14 l-1198 6 0 -4816z m4150 1823 l0
-1020 -1105 0 -1105 0 0 1020 0 1020 1105 0 1105 0 0 -1020z"/>
<path d="M57075 58128 c-2 -7 -452 -2157 -1000 -4778 -548 -2621 -998 -4773
-1001 -4782 -5 -17 47 -18 1000 -18 l1006 0 5 23 c14 59 365 1740 365 1748 0
5 417 8 1057 7 l1057 -3 156 -850 c86 -467 160 -867 164 -887 l7 -38 1031 0
1031 0 -6 28 c-62 307 -1998 9546 -2002 9553 -4 5 -555 9 -1436 9 -1135 0
-1430 -3 -1434 -12z m2055 -5930 c0 -17 -37 -18 -646 -18 l-646 0 5 28 c13 61
689 2898 694 2912 5 13 591 -2878 593 -2922z"/>
<path d="M74865 58125 c-1287 -7 -2496 -13 -2687 -14 l-348 -1 0 -970 0 -970
970 0 970 0 0 -3820 0 -3820 965 0 965 0 0 3820 0 3820 945 0 945 0 -2 983 -3
982 -190 1 c-104 1 -1243 -5 -2530 -11z"/>
<path d="M93057 58118 c-16 -62 -1997 -9542 -1997 -9554 0 -12 145 -14 1002
-12 l1002 3 186 885 186 885 1057 3 c736 1 1057 -1 1057 -8 0 -6 72 -403 160
-882 88 -479 160 -875 160 -879 0 -5 459 -9 1030 -9 876 0 1030 2 1030 14 0
13 -1965 9415 -1991 9529 l-11 47 -1433 0 -1433 0 -5 -22z m1767 -4470 l293
-1468 -650 0 -649 0 7 28 c4 15 157 659 341 1431 382 1604 357 1499 361 1486
2 -6 135 -670 297 -1477z"/>
<path d="M102335 58125 c-1287 -7 -2496 -13 -2687 -14 l-348 -1 0 -970 0 -970
970 0 970 0 0 -3820 0 -3820 965 0 965 0 0 3820 0 3820 945 0 945 0 -2 983 -3
982 -190 1 c-104 1 -1243 -5 -2530 -11z"/>
<path d="M40150 53325 l0 -4785 975 0 975 0 0 2079 0 2079 88 6 c48 3 547 9
1110 12 l1022 7 0 -2092 0 -2091 975 0 975 0 0 4785 0 4785 -1003 0 -1004 0
-6 -577 c-4 -318 -7 -1110 -7 -1760 l0 -1183 -1075 0 -1075 0 0 1760 0 1760
-975 0 -975 0 0 -4785z"/>
<path d="M48170 53330 l0 -4780 2510 0 2510 0 0 925 c0 509 -1 925 -2 926 -7
2 -2680 38 -2860 38 l-208 1 0 1001 0 1001 238 -6 c130 -3 595 -8 1032 -11
437 -3 1021 -8 1298 -11 l502 -7 0 1003 0 1002 -297 -6 c-164 -3 -855 -9
-1535 -12 l-1238 -6 0 911 0 911 1535 0 1535 0 0 950 0 950 -2510 0 -2510 0 0
-4780z"/>
<path d="M107260 53330 l0 -4780 2515 0 2515 0 0 925 c0 509 -1 925 -2 926 -7
2 -2701 38 -2875 39 l-203 0 0 1000 0 1000 333 -5 c852 -13 2731 -25 2739 -17
4 4 7 453 6 998 l-3 989 -160 0 c-88 0 -780 -4 -1537 -8 l-1378 -9 0 911 0
911 1538 2 1537 3 3 948 2 947 -2515 0 -2515 0 0 -4780z"/>
<path d="M43101 41810 c-472 -37 -871 -147 -1271 -351 -872 -442 -1483 -1277
-1665 -2273 -74 -408 -72 -896 6 -1304 163 -855 652 -1592 1369 -2065 146 -96
458 -255 610 -311 535 -196 1126 -252 1740 -166 724 101 1324 414 1889 983
l94 95 -358 361 -358 361 -61 -58 c-566 -528 -1099 -762 -1738 -762 -564 0
-1064 210 -1454 611 -333 343 -536 776 -615 1314 -18 119 -18 519 -1 645 89
636 385 1163 847 1509 180 136 348 223 567 295 595 198 1240 119 1816 -222
136 -81 355 -243 494 -366 54 -47 99 -86 102 -86 7 0 706 809 706 818 0 10
-180 171 -304 270 -121 98 -354 252 -496 329 -357 193 -748 309 -1205 358
-174 19 -562 27 -714 15z"/>
<path d="M63860 41810 c-155 -12 -380 -45 -520 -76 -1391 -310 -2390 -1461
-2511 -2892 -15 -179 -6 -582 16 -742 93 -670 355 -1247 790 -1741 355 -402
890 -743 1420 -904 764 -232 1611 -201 2334 86 1064 424 1814 1379 1981 2525
106 734 -23 1483 -365 2104 -167 303 -392 589 -640 813 -501 452 -1129 731
-1825 812 -166 19 -525 27 -680 15z m499 -1026 c981 -114 1730 -884 1866
-1917 30 -232 17 -591 -30 -820 -181 -875 -811 -1521 -1645 -1686 -538 -106
-1094 -8 -1549 274 -256 159 -509 415 -681 690 -73 117 -166 318 -215 467 -85
256 -125 504 -125 778 0 895 464 1673 1207 2027 353 168 768 234 1172 187z"/>
<path d="M74195 41789 c-327 -29 -665 -124 -925 -261 -525 -276 -848 -718
-942 -1283 -19 -120 -16 -503 5 -630 103 -598 422 -958 1103 -1244 251 -105
536 -191 1055 -320 655 -162 953 -283 1146 -465 101 -95 155 -193 178 -321 77
-431 -153 -764 -619 -899 -172 -50 -254 -60 -501 -60 -322 0 -545 35 -830 129
-374 124 -660 294 -1121 667 -22 18 -25 14 -350 -373 -181 -215 -330 -395
-332 -399 -2 -4 39 -43 90 -86 465 -390 1009 -670 1573 -809 293 -72 534 -104
855 -112 779 -20 1398 177 1830 584 377 354 565 877 521 1451 -19 257 -65 434
-164 626 -138 271 -371 491 -710 675 -297 160 -590 262 -1207 421 -538 138
-785 217 -985 318 -250 125 -388 278 -430 477 -19 91 -19 262 1 345 49 209
228 402 460 497 444 181 1052 117 1649 -173 155 -75 360 -197 499 -297 55 -39
104 -72 108 -72 3 0 139 187 302 415 l295 415 -32 28 c-18 15 -87 67 -154 115
-474 337 -990 542 -1553 616 -258 35 -586 44 -815 25z"/>
<path d="M83650 41789 c-756 -66 -1365 -418 -1674 -967 -95 -169 -152 -329
-193 -547 -24 -127 -24 -518 0 -660 99 -574 393 -922 1014 -1205 265 -120 539
-207 1097 -346 713 -179 996 -292 1193 -478 104 -98 155 -193 180 -331 42
-245 -23 -478 -181 -640 -146 -149 -335 -239 -619 -292 -129 -24 -504 -24
-672 1 -261 37 -504 107 -732 209 -276 123 -498 268 -869 569 -22 18 -25 15
-350 -373 -181 -215 -330 -394 -332 -399 -8 -22 344 -291 553 -423 495 -311
1052 -502 1660 -569 159 -17 655 -17 795 0 531 67 935 226 1259 497 322 269
518 625 588 1068 25 162 22 478 -6 642 -91 524 -384 883 -946 1160 -301 148
-580 241 -1131 379 -465 116 -724 199 -930 296 -279 131 -425 285 -469 495
-19 91 -19 262 0 344 52 218 226 404 470 501 259 105 583 125 940 60 400 -72
822 -262 1220 -548 84 -60 90 -63 102 -46 7 11 141 199 297 419 l285 400 -32
28 c-18 15 -87 67 -154 115 -474 337 -990 542 -1553 616 -257 34 -587 44 -810
25z"/>
<path d="M50810 38560 l0 -3150 555 0 555 0 0 1100 0 1100 689 0 689 0 773
-1099 774 -1100 653 0 c358 -1 652 1 652 4 0 3 -381 539 -846 1191 -465 652
-844 1186 -842 1187 1 1 62 22 133 45 376 126 723 351 938 610 323 387 468
903 416 1472 -24 264 -87 490 -199 715 -291 583 -839 927 -1670 1048 -142 20
-181 21 -1707 24 l-1563 4 0 -3151z m3096 2112 c529 -101 833 -372 909 -811
17 -97 19 -297 4 -391 -75 -469 -442 -784 -1009 -865 -87 -12 -262 -15 -997
-15 l-893 0 0 1055 0 1056 938 -4 c906 -3 941 -4 1048 -25z"/>
<path d="M91470 38560 l0 -3150 555 0 555 0 0 1280 0 1280 1590 0 1590 0 0
505 0 505 -1590 0 -1590 0 0 860 0 860 1790 0 1790 0 0 505 0 505 -2345 0
-2345 0 0 -3150z"/>
<path d="M101220 38560 l0 -3150 550 0 550 0 0 3150 0 3150 -550 0 -550 0 0
-3150z"/>
<path d="M107340 41195 l0 -515 1000 0 1000 0 0 -2635 0 -2635 555 0 555 0 0
2635 0 2635 1000 0 1000 0 0 515 0 515 -2555 0 -2555 0 0 -515z"/>
<path d="M94555 31569 c-311 -28 -555 -185 -661 -425 -37 -85 -54 -174 -54
-294 0 -204 46 -328 164 -445 116 -115 271 -184 625 -279 378 -102 471 -161
471 -301 0 -59 -14 -93 -58 -138 -52 -54 -125 -79 -250 -85 -229 -11 -448 64
-664 226 -47 36 -76 51 -84 46 -7 -5 -72 -81 -145 -169 -73 -88 -138 -167
-146 -176 -12 -14 -4 -23 64 -75 139 -106 269 -177 424 -232 177 -63 272 -77
504 -77 249 0 328 15 490 94 267 130 402 374 382 690 -22 344 -222 520 -747
661 -319 85 -432 132 -484 203 -17 23 -21 43 -21 106 0 69 3 81 27 114 16 20
53 48 85 64 49 24 73 28 160 31 193 8 385 -58 614 -211 l27 -18 136 198 136
197 -27 22 c-61 49 -197 128 -285 166 -203 87 -459 128 -683 107z"/>
<path d="M103250 31569 c-189 -16 -335 -71 -480 -180 -107 -81 -290 -285 -275
-309 3 -5 85 -73 181 -151 l176 -141 46 53 c165 194 281 262 443 263 78 0 93
-3 153 -33 123 -61 179 -180 155 -333 -27 -175 -128 -282 -751 -792 l-438
-358 0 -209 0 -209 875 0 875 0 0 225 0 225 -511 2 -512 3 279 217 c413 321
523 424 616 580 128 214 142 530 33 753 -139 285 -456 430 -865 394z"/>
<path d="M106165 31573 c-70 -10 -195 -47 -263 -78 -319 -148 -544 -462 -618
-865 -27 -146 -25 -430 4 -578 94 -471 379 -797 788 -899 106 -26 383 -24 486
5 356 98 606 345 733 725 54 162 69 266 69 477 0 151 -4 205 -22 296 -54 269
-155 468 -327 640 -193 194 -421 286 -700 282 -66 0 -133 -3 -150 -5z m264
-482 c134 -42 232 -133 306 -284 74 -152 90 -238 89 -462 0 -172 -3 -199 -27
-287 -84 -315 -299 -493 -543 -451 -202 35 -350 197 -422 462 -24 88 -26 112
-26 291 0 179 2 203 26 292 32 116 91 234 153 304 114 131 287 184 444 135z"/>
<path d="M111208 31565 c-337 -64 -593 -290 -672 -595 -24 -90 -32 -271 -16
-367 31 -191 119 -347 254 -450 137 -104 307 -160 516 -170 199 -9 343 23 475
106 l65 40 0 -28 c0 -45 -48 -200 -82 -263 -38 -72 -131 -161 -200 -193 -183
-84 -450 -34 -653 120 -25 19 -49 35 -54 35 -6 0 -70 -88 -145 -195 l-135
-195 57 -44 c218 -167 469 -244 767 -233 180 7 296 35 437 109 115 60 238 167
313 272 100 141 178 342 217 555 17 95 21 158 22 351 1 304 -24 462 -98 640
-102 241 -313 426 -561 491 -106 28 -392 36 -507 14z m414 -464 c81 -31 158
-104 193 -183 25 -53 29 -76 29 -148 0 -110 -33 -189 -106 -255 -152 -136
-450 -134 -602 6 -77 70 -101 128 -101 249 0 117 20 174 84 243 84 90 165 117
331 113 91 -2 127 -7 172 -25z"/>
<path d="M108630 31458 c-184 -55 -336 -101 -336 -102 -3 -2 105 -418 110
-423 2 -3 95 17 205 45 110 27 203 47 206 44 3 -3 5 -421 5 -929 l0 -923 255
0 255 0 0 1195 0 1195 -182 -1 -183 0 -335 -101z"/>
<path d="M90960 30355 l0 -1185 900 0 900 0 0 230 0 230 -640 0 -640 0 0 250
0 250 555 0 555 0 0 235 0 235 -555 0 -555 0 0 240 0 240 635 0 635 0 0 230 0
230 -895 0 -895 0 0 -1185z"/>
<path d="M96530 31300 l0 -240 360 0 360 0 0 -945 0 -945 260 0 260 0 0 945 0
945 365 0 365 0 0 240 0 240 -985 0 -985 0 0 -240z"/>
<path d="M40060 30410 l0 -440 23005 0 23005 0 0 440 0 440 -23005 0 -23005 0
0 -440z"/>
<path d="M99160 29440 l0 -270 275 0 275 0 0 270 0 270 -275 0 -275 0 0 -270z"/>
</g>
</svg>
